+ filenameToUse=/home/horvathandras/vatic/vatic/public/videouploads/DJI_0109_30m_kozepen_nyulragas.avi
+ filenameNoDot=DJI_0109_30m_kozepen_nyulragas_Vaskut_20180512_napos_kalaszos_T2
+ FullUploadPath=/home/horvathandras/vatic/vatic/public/videouploads/DJI_0109_30m_kozepen_nyulragas.avi
+ VideoDataDir=/home/horvathandras/vatic/vatic/videos
+ AvailableObjectTypes='PozitívROI NegatívROI Túrás ~Friss ~Régebbi Rágás ~Friss ~Régebbi Törés ~Friss ~Régebbi Taposás ~Friss ~Régebbi EgészségesNövény Egyéb1 Egyéb2 Egyéb3 Egyéb4 Egyéb5'
++ dirname /home/horvathandras/vatic/vatic/vatic_publisher.sh
+ cd /home/horvathandras/vatic/vatic
+ touch /home/horvathandras/vatic/vatic/public/videouploads/DJI_0109_30m_kozepen_nyulragas.avi
+ chmod 744 /home/horvathandras/vatic/vatic/public/videouploads/DJI_0109_30m_kozepen_nyulragas.avi
+ mkdir /home/horvathandras/vatic/vatic/videos/DJI_0109_30m_kozepen_nyulragas_Vaskut_20180512_napos_kalaszos_T2
+ turkic extract /home/horvathandras/vatic/vatic/public/videouploads/DJI_0109_30m_kozepen_nyulragas.avi /home/horvathandras/vatic/vatic/videos/DJI_0109_30m_kozepen_nyulragas_Vaskut_20180512_napos_kalaszos_T2 --no-resize
ffmpeg version 2.8.14-0ubuntu0.16.04.1 Copyright (c) 2000-2018 the FFmpeg developers
  built with gcc 5.4.0 (Ubuntu 5.4.0-6ubuntu1~16.04.9) 20160609
  configuration: --prefix=/usr --extra-version=0ubuntu0.16.04.1 --build-suffix=-ffmpeg --toolchain=hardened --libdir=/usr/lib/x86_64-linux-gnu --incdir=/usr/include/x86_64-linux-gnu --cc=cc --cxx=g++ --enable-gpl --enable-shared --disable-stripping --disable-decoder=libopenjpeg --disable-decoder=libschroedinger --enable-avresample --enable-avisynth --enable-gnutls --enable-ladspa --enable-libass --enable-libbluray --enable-libbs2b --enable-libcaca --enable-libcdio --enable-libflite --enable-libfontconfig --enable-libfreetype --enable-libfribidi --enable-libgme --enable-libgsm --enable-libmodplug --enable-libmp3lame --enable-libopenjpeg --enable-libopus --enable-libpulse --enable-librtmp --enable-libschroedinger --enable-libshine --enable-libsnappy --enable-libsoxr --enable-libspeex --enable-libssh --enable-libtheora --enable-libtwolame --enable-libvorbis --enable-libvpx --enable-libwavpack --enable-libwebp --enable-libx265 --enable-libxvid --enable-libzvbi --enable-openal --enable-opengl --enable-x11grab --enable-libdc1394 --enable-libiec61883 --enable-libzmq --enable-frei0r --enable-libx264 --enable-libopencv
  libavutil      54. 31.100 / 54. 31.100
  libavcodec     56. 60.100 / 56. 60.100
  libavformat    56. 40.101 / 56. 40.101
  libavdevice    56.  4.100 / 56.  4.100
  libavfilter     5. 40.101 /  5. 40.101
  libavresample   2.  1.  0 /  2.  1.  0
  libswscale      3.  1.101 /  3.  1.101
  libswresample   1.  2.101 /  1.  2.101
  libpostproc    53.  3.100 / 53.  3.100
Input #0, mov,mp4,m4a,3gp,3g2,mj2, from '/home/horvathandras/vatic/vatic/public/videouploads/DJI_0109_30m_kozepen_nyulragas.avi':
  Metadata:
    major_brand     : qt  
    minor_version   : 537986816
    compatible_brands: qt  
    creation_time   : 2018-05-12 15:17:19
    location        : +46.076280+18.995602+30.800
    location-{    : +46.076280+18.995602+30.800
    comment         : DE=None, Mode=P, DSW=0001
  Duration: 00:00:24.72, start: 0.000000, bitrate: 100805 kb/s
    Stream #0:0(eng): Video: h264 (High) (avc1 / 0x31637661), yuv420p(tv, bt709), 4096x2160 [SAR 1:1 DAR 256:135], 100671 kb/s, 59.94 fps, 59.94 tbr, 60k tbn, 119.88 tbc (default)
    Metadata:
      creation_time   : 2018-05-12 15:17:19
      handler_name    : DJI.AVC
      encoder         : AVC encoder
    Stream #0:1(eng): Data: none (priv / 0x76697270), 123 kb/s
    Metadata:
      creation_time   : 2018-05-12 15:17:19
      handler_name    : DJI.Meta
Please use -b:a or -b:v, -b is ambiguous
[swscaler @ 0x1b2b720] deprecated pixel format used, make sure you did set range correctly
Output #0, image2, to '/tmp/pyvision-ffmpeg-993903946/%d.jpg':
  Metadata:
    major_brand     : qt  
    minor_version   : 537986816
    compatible_brands: qt  
    comment         : DE=None, Mode=P, DSW=0001
    location        : +46.076280+18.995602+30.800
    location-{    : +46.076280+18.995602+30.800
    encoder         : Lavf56.40.101
    Stream #0:0(eng): Video: mjpeg, yuvj420p(pc), 4096x2160 [SAR 1:1 DAR 256:135], q=2-31, 10000 kb/s, 59.94 fps, 59.94 tbn, 59.94 tbc (default)
    Metadata:
      creation_time   : 2018-05-12 15:17:19
      handler_name    : DJI.AVC
      encoder         : Lavc56.60.100 mjpeg
Stream mapping:
  Stream #0:0 -> #0:0 (h264 (native) -> mjpeg (native))
Press [q] to stop, [?] for help
frame=    2 fps=0.0 q=17.5 size=N/A time=00:00:00.03 bitrate=N/A    frame=    7 fps=6.2 q=24.8 size=N/A time=00:00:00.11 bitrate=N/A    frame=   12 fps=7.2 q=24.8 size=N/A time=00:00:00.20 bitrate=N/A    frame=   17 fps=7.8 q=24.8 size=N/A time=00:00:00.28 bitrate=N/A    frame=   22 fps=8.2 q=24.8 size=N/A time=00:00:00.36 bitrate=N/A    frame=   27 fps=8.5 q=24.8 size=N/A time=00:00:00.45 bitrate=N/A    frame=   32 fps=8.6 q=24.8 size=N/A time=00:00:00.53 bitrate=N/A    frame=   37 fps=8.8 q=24.8 size=N/A time=00:00:00.61 bitrate=N/A    frame=   42 fps=8.9 q=24.8 size=N/A time=00:00:00.70 bitrate=N/A    frame=   47 fps=9.0 q=24.8 size=N/A time=00:00:00.78 bitrate=N/A    frame=   52 fps=9.1 q=24.8 size=N/A time=00:00:00.86 bitrate=N/A    frame=   57 fps=9.1 q=24.8 size=N/A time=00:00:00.95 bitrate=N/A    frame=   62 fps=9.2 q=24.8 size=N/A time=00:00:01.03 bitrate=N/A    frame=   67 fps=9.2 q=24.8 size=N/A time=00:00:01.11 bitrate=N/A    frame=   72 fps=9.2 q=24.8 size=N/A time=00:00:01.20 bitrate=N/A    frame=   77 fps=9.3 q=24.8 size=N/A time=00:00:01.28 bitrate=N/A    frame=   82 fps=9.3 q=24.8 size=N/A time=00:00:01.36 bitrate=N/A    frame=   87 fps=9.3 q=24.8 size=N/A time=00:00:01.45 bitrate=N/A    frame=   92 fps=9.4 q=24.8 size=N/A time=00:00:01.53 bitrate=N/A    frame=   97 fps=9.4 q=24.8 size=N/A time=00:00:01.61 bitrate=N/A    frame=  102 fps=9.4 q=24.8 size=N/A time=00:00:01.70 bitrate=N/A    frame=  107 fps=9.4 q=24.8 size=N/A time=00:00:01.78 bitrate=N/A    frame=  112 fps=9.4 q=24.8 size=N/A time=00:00:01.86 bitrate=N/A    frame=  117 fps=9.5 q=24.8 size=N/A time=00:00:01.95 bitrate=N/A    frame=  122 fps=9.5 q=24.8 size=N/A time=00:00:02.03 bitrate=N/A    frame=  127 fps=9.5 q=24.8 size=N/A time=00:00:02.11 bitrate=N/A    frame=  132 fps=9.5 q=24.8 size=N/A time=00:00:02.20 bitrate=N/A    frame=  137 fps=9.5 q=24.8 size=N/A time=00:00:02.28 bitrate=N/A    frame=  142 fps=9.5 q=24.8 size=N/A time=00:00:02.36 bitrate=N/A    frame=  147 fps=9.5 q=24.8 size=N/A time=00:00:02.45 bitrate=N/A    frame=  152 fps=9.5 q=24.8 size=N/A time=00:00:02.53 bitrate=N/A    frame=  157 fps=9.5 q=24.8 size=N/A time=00:00:02.61 bitrate=N/A    frame=  162 fps=9.6 q=24.8 size=N/A time=00:00:02.70 bitrate=N/A    frame=  167 fps=9.6 q=24.8 size=N/A time=00:00:02.78 bitrate=N/A    frame=  172 fps=9.6 q=24.8 size=N/A time=00:00:02.86 bitrate=N/A    frame=  177 fps=9.6 q=24.8 size=N/A time=00:00:02.95 bitrate=N/A    frame=  182 fps=9.6 q=24.8 size=N/A time=00:00:03.03 bitrate=N/A    frame=  187 fps=9.6 q=24.8 size=N/A time=00:00:03.11 bitrate=N/A    frame=  192 fps=9.6 q=24.8 size=N/A time=00:00:03.20 bitrate=N/A    frame=  197 fps=9.6 q=24.8 size=N/A time=00:00:03.28 bitrate=N/A    frame=  202 fps=9.6 q=24.8 size=N/A time=00:00:03.37 bitrate=N/A    frame=  207 fps=9.6 q=24.8 size=N/A time=00:00:03.45 bitrate=N/A    frame=  212 fps=9.6 q=24.8 size=N/A time=00:00:03.53 bitrate=N/A    frame=  217 fps=9.6 q=24.8 size=N/A time=00:00:03.62 bitrate=N/A    frame=  222 fps=9.6 q=24.8 size=N/A time=00:00:03.70 bitrate=N/A    frame=  227 fps=9.6 q=24.8 size=N/A time=00:00:03.78 bitrate=N/A    frame=  232 fps=9.6 q=24.8 size=N/A time=00:00:03.87 bitrate=N/A    frame=  237 fps=9.6 q=24.8 size=N/A time=00:00:03.95 bitrate=N/A    frame=  242 fps=9.6 q=24.8 size=N/A time=00:00:04.03 bitrate=N/A    frame=  247 fps=9.6 q=24.8 size=N/A time=00:00:04.12 bitrate=N/A    frame=  252 fps=9.6 q=24.8 size=N/A time=00:00:04.20 bitrate=N/A    frame=  257 fps=9.6 q=24.8 size=N/A time=00:00:04.28 bitrate=N/A    frame=  262 fps=9.7 q=24.8 size=N/A time=00:00:04.37 bitrate=N/A    frame=  267 fps=9.7 q=24.8 size=N/A time=00:00:04.45 bitrate=N/A    frame=  272 fps=9.7 q=24.8 size=N/A time=00:00:04.53 bitrate=N/A    frame=  277 fps=9.7 q=24.8 size=N/A time=00:00:04.62 bitrate=N/A    frame=  282 fps=9.7 q=24.8 size=N/A time=00:00:04.70 bitrate=N/A    frame=  287 fps=9.7 q=24.8 size=N/A time=00:00:04.78 bitrate=N/A    frame=  292 fps=9.7 q=24.8 size=N/A time=00:00:04.87 bitrate=N/A    frame=  297 fps=9.7 q=24.8 size=N/A time=00:00:04.95 bitrate=N/A    frame=  302 fps=9.7 q=24.8 size=N/A time=00:00:05.03 bitrate=N/A    frame=  307 fps=9.7 q=24.8 size=N/A time=00:00:05.12 bitrate=N/A    frame=  312 fps=9.7 q=24.8 size=N/A time=00:00:05.20 bitrate=N/A    frame=  317 fps=9.7 q=24.8 size=N/A time=00:00:05.28 bitrate=N/A    frame=  322 fps=9.7 q=24.8 size=N/A time=00:00:05.37 bitrate=N/A    frame=  327 fps=9.7 q=24.8 size=N/A time=00:00:05.45 bitrate=N/A    frame=  332 fps=9.7 q=24.8 size=N/A time=00:00:05.53 bitrate=N/A    frame=  337 fps=9.7 q=24.8 size=N/A time=00:00:05.62 bitrate=N/A    frame=  342 fps=9.7 q=24.8 size=N/A time=00:00:05.70 bitrate=N/A    frame=  348 fps=9.7 q=24.8 size=N/A time=00:00:05.80 bitrate=N/A    frame=  353 fps=9.7 q=24.8 size=N/A time=00:00:05.88 bitrate=N/A    frame=  358 fps=9.7 q=24.8 size=N/A time=00:00:05.97 bitrate=N/A    frame=  363 fps=9.7 q=24.8 size=N/A time=00:00:06.05 bitrate=N/A    frame=  368 fps=9.7 q=24.8 size=N/A time=00:00:06.13 bitrate=N/A    frame=  373 fps=9.7 q=24.8 size=N/A time=00:00:06.22 bitrate=N/A    frame=  378 fps=9.7 q=24.8 size=N/A time=00:00:06.30 bitrate=N/A    frame=  383 fps=9.7 q=24.8 size=N/A time=00:00:06.38 bitrate=N/A    frame=  388 fps=9.7 q=24.8 size=N/A time=00:00:06.47 bitrate=N/A    frame=  393 fps=9.7 q=24.8 size=N/A time=00:00:06.55 bitrate=N/A    frame=  398 fps=9.7 q=24.8 size=N/A time=00:00:06.63 bitrate=N/A    frame=  403 fps=9.7 q=24.8 size=N/A time=00:00:06.72 bitrate=N/A    frame=  408 fps=9.7 q=24.8 size=N/A time=00:00:06.80 bitrate=N/A    frame=  413 fps=9.7 q=24.8 size=N/A time=00:00:06.89 bitrate=N/A    frame=  418 fps=9.7 q=24.8 size=N/A time=00:00:06.97 bitrate=N/A    frame=  423 fps=9.7 q=24.8 size=N/A time=00:00:07.05 bitrate=N/A    frame=  428 fps=9.7 q=24.8 size=N/A time=00:00:07.14 bitrate=N/A    frame=  433 fps=9.8 q=24.8 size=N/A time=00:00:07.22 bitrate=N/A    frame=  438 fps=9.8 q=24.8 size=N/A time=00:00:07.30 bitrate=N/A    frame=  443 fps=9.8 q=24.8 size=N/A time=00:00:07.39 bitrate=N/A    frame=  448 fps=9.8 q=24.8 size=N/A time=00:00:07.47 bitrate=N/A    frame=  453 fps=9.8 q=24.8 size=N/A time=00:00:07.55 bitrate=N/A    frame=  458 fps=9.8 q=24.8 size=N/A time=00:00:07.64 bitrate=N/A    frame=  463 fps=9.8 q=24.8 size=N/A time=00:00:07.72 bitrate=N/A    frame=  468 fps=9.8 q=24.8 size=N/A time=00:00:07.80 bitrate=N/A    frame=  473 fps=9.8 q=24.8 size=N/A time=00:00:07.89 bitrate=N/A    frame=  478 fps=9.8 q=24.8 size=N/A time=00:00:07.97 bitrate=N/A    frame=  483 fps=9.8 q=24.8 size=N/A time=00:00:08.05 bitrate=N/A    frame=  488 fps=9.8 q=24.8 size=N/A time=00:00:08.14 bitrate=N/A    frame=  493 fps=9.8 q=24.8 size=N/A time=00:00:08.22 bitrate=N/A    frame=  498 fps=9.8 q=24.8 size=N/A time=00:00:08.30 bitrate=N/A    frame=  503 fps=9.8 q=24.8 size=N/A time=00:00:08.39 bitrate=N/A    frame=  508 fps=9.8 q=24.8 size=N/A time=00:00:08.47 bitrate=N/A    frame=  513 fps=9.8 q=24.8 size=N/A time=00:00:08.55 bitrate=N/A    frame=  518 fps=9.8 q=24.8 size=N/A time=00:00:08.64 bitrate=N/A    frame=  523 fps=9.8 q=24.8 size=N/A time=00:00:08.72 bitrate=N/A    frame=  528 fps=9.8 q=24.8 size=N/A time=00:00:08.80 bitrate=N/A    frame=  533 fps=9.8 q=24.8 size=N/A time=00:00:08.89 bitrate=N/A    frame=  538 fps=9.8 q=24.8 size=N/A time=00:00:08.97 bitrate=N/A    frame=  543 fps=9.8 q=24.8 size=N/A time=00:00:09.05 bitrate=N/A    frame=  548 fps=9.8 q=24.8 size=N/A time=00:00:09.14 bitrate=N/A    frame=  553 fps=9.8 q=24.8 size=N/A time=00:00:09.22 bitrate=N/A    frame=  558 fps=9.8 q=24.8 size=N/A time=00:00:09.30 bitrate=N/A    frame=  563 fps=9.8 q=24.8 size=N/A time=00:00:09.39 bitrate=N/A    frame=  568 fps=9.8 q=24.8 size=N/A time=00:00:09.47 bitrate=N/A    frame=  573 fps=9.8 q=24.8 size=N/A time=00:00:09.55 bitrate=N/A    frame=  578 fps=9.8 q=24.8 size=N/A time=00:00:09.64 bitrate=N/A    frame=  583 fps=9.8 q=24.8 size=N/A time=00:00:09.72 bitrate=N/A    frame=  588 fps=9.8 q=24.8 size=N/A time=00:00:09.80 bitrate=N/A    frame=  593 fps=9.8 q=24.8 size=N/A time=00:00:09.89 bitrate=N/A    frame=  598 fps=9.8 q=24.8 size=N/A time=00:00:09.97 bitrate=N/A    frame=  603 fps=9.8 q=24.8 size=N/A time=00:00:10.06 bitrate=N/A    frame=  608 fps=9.8 q=24.8 size=N/A time=00:00:10.14 bitrate=N/A    frame=  613 fps=9.8 q=24.8 size=N/A time=00:00:10.22 bitrate=N/A    frame=  618 fps=9.8 q=24.8 size=N/A time=00:00:10.31 bitrate=N/A    frame=  623 fps=9.8 q=24.8 size=N/A time=00:00:10.39 bitrate=N/A    frame=  628 fps=9.8 q=24.8 size=N/A time=00:00:10.47 bitrate=N/A    frame=  633 fps=9.8 q=24.8 size=N/A time=00:00:10.56 bitrate=N/A    frame=  638 fps=9.8 q=24.8 size=N/A time=00:00:10.64 bitrate=N/A    frame=  643 fps=9.8 q=24.8 size=N/A time=00:00:10.72 bitrate=N/A    frame=  648 fps=9.8 q=24.8 size=N/A time=00:00:10.81 bitrate=N/A    frame=  653 fps=9.8 q=24.8 size=N/A time=00:00:10.89 bitrate=N/A    frame=  658 fps=9.8 q=24.8 size=N/A time=00:00:10.97 bitrate=N/A    frame=  663 fps=9.8 q=24.8 size=N/A time=00:00:11.06 bitrate=N/A    frame=  668 fps=9.8 q=24.8 size=N/A time=00:00:11.14 bitrate=N/A    frame=  673 fps=9.8 q=24.8 size=N/A time=00:00:11.22 bitrate=N/A    frame=  678 fps=9.8 q=24.8 size=N/A time=00:00:11.31 bitrate=N/A    frame=  683 fps=9.8 q=24.8 size=N/A time=00:00:11.39 bitrate=N/A    frame=  688 fps=9.8 q=24.8 size=N/A time=00:00:11.47 bitrate=N/A    frame=  693 fps=9.8 q=24.8 size=N/A time=00:00:11.56 bitrate=N/A    frame=  698 fps=9.8 q=24.8 size=N/A time=00:00:11.64 bitrate=N/A    frame=  703 fps=9.8 q=24.8 size=N/A time=00:00:11.72 bitrate=N/A    frame=  708 fps=9.8 q=24.8 size=N/A time=00:00:11.81 bitrate=N/A    frame=  713 fps=9.8 q=24.8 size=N/A time=00:00:11.89 bitrate=N/A    frame=  718 fps=9.8 q=24.8 size=N/A time=00:00:11.97 bitrate=N/A    frame=  723 fps=9.8 q=24.8 size=N/A time=00:00:12.06 bitrate=N/A    frame=  728 fps=9.8 q=24.8 size=N/A time=00:00:12.14 bitrate=N/A    frame=  733 fps=9.8 q=24.8 size=N/A time=00:00:12.22 bitrate=N/A    frame=  738 fps=9.8 q=24.8 size=N/A time=00:00:12.31 bitrate=N/A    frame=  743 fps=9.8 q=24.8 size=N/A time=00:00:12.39 bitrate=N/A    frame=  748 fps=9.8 q=24.8 size=N/A time=00:00:12.47 bitrate=N/A    frame=  753 fps=9.8 q=24.8 size=N/A time=00:00:12.56 bitrate=N/A    frame=  758 fps=9.8 q=24.8 size=N/A time=00:00:12.64 bitrate=N/A    frame=  763 fps=9.8 q=24.8 size=N/A time=00:00:12.72 bitrate=N/A    frame=  768 fps=9.8 q=24.8 size=N/A time=00:00:12.81 bitrate=N/A    frame=  773 fps=9.8 q=24.8 size=N/A time=00:00:12.89 bitrate=N/A    frame=  778 fps=9.8 q=24.8 size=N/A time=00:00:12.97 bitrate=N/A    frame=  783 fps=9.8 q=24.8 size=N/A time=00:00:13.06 bitrate=N/A    frame=  788 fps=9.8 q=24.8 size=N/A time=00:00:13.14 bitrate=N/A    frame=  793 fps=9.8 q=24.8 size=N/A time=00:00:13.22 bitrate=N/A    frame=  798 fps=9.8 q=24.8 size=N/A time=00:00:13.31 bitrate=N/A    frame=  803 fps=9.8 q=24.8 size=N/A time=00:00:13.39 bitrate=N/A    frame=  808 fps=9.8 q=24.8 size=N/A time=00:00:13.48 bitrate=N/A    frame=  813 fps=9.8 q=24.8 size=N/A time=00:00:13.56 bitrate=N/A    frame=  818 fps=9.8 q=24.8 size=N/A time=00:00:13.64 bitrate=N/A    frame=  823 fps=9.8 q=24.8 size=N/A time=00:00:13.73 bitrate=N/A    frame=  828 fps=9.8 q=24.8 size=N/A time=00:00:13.81 bitrate=N/A    frame=  833 fps=9.8 q=24.8 size=N/A time=00:00:13.89 bitrate=N/A    frame=  838 fps=9.8 q=24.8 size=N/A time=00:00:13.98 bitrate=N/A    frame=  843 fps=9.8 q=24.8 size=N/A time=00:00:14.06 bitrate=N/A    frame=  848 fps=9.8 q=24.8 size=N/A time=00:00:14.14 bitrate=N/A    frame=  853 fps=9.8 q=24.8 size=N/A time=00:00:14.23 bitrate=N/A    frame=  858 fps=9.8 q=24.8 size=N/A time=00:00:14.31 bitrate=N/A    frame=  863 fps=9.8 q=24.8 size=N/A time=00:00:14.39 bitrate=N/A    frame=  868 fps=9.8 q=24.8 size=N/A time=00:00:14.48 bitrate=N/A    frame=  873 fps=9.8 q=24.8 size=N/A time=00:00:14.56 bitrate=N/A    frame=  878 fps=9.8 q=24.8 size=N/A time=00:00:14.64 bitrate=N/A    frame=  883 fps=9.8 q=24.8 size=N/A time=00:00:14.73 bitrate=N/A    frame=  888 fps=9.8 q=24.8 size=N/A time=00:00:14.81 bitrate=N/A    frame=  893 fps=9.8 q=24.8 size=N/A time=00:00:14.89 bitrate=N/A    frame=  898 fps=9.8 q=24.8 size=N/A time=00:00:14.98 bitrate=N/A    frame=  903 fps=9.8 q=24.8 size=N/A time=00:00:15.06 bitrate=N/A    frame=  908 fps=9.8 q=24.8 size=N/A time=00:00:15.14 bitrate=N/A    frame=  913 fps=9.8 q=24.8 size=N/A time=00:00:15.23 bitrate=N/A    frame=  918 fps=9.8 q=24.8 size=N/A time=00:00:15.31 bitrate=N/A    frame=  923 fps=9.8 q=24.8 size=N/A time=00:00:15.39 bitrate=N/A    frame=  928 fps=9.8 q=24.8 size=N/A time=00:00:15.48 bitrate=N/A    frame=  933 fps=9.8 q=24.8 size=N/A time=00:00:15.56 bitrate=N/A    frame=  938 fps=9.8 q=24.8 size=N/A time=00:00:15.64 bitrate=N/A    frame=  943 fps=9.8 q=24.8 size=N/A time=00:00:15.73 bitrate=N/A    frame=  948 fps=9.8 q=24.8 size=N/A time=00:00:15.81 bitrate=N/A    frame=  953 fps=9.8 q=24.8 size=N/A time=00:00:15.89 bitrate=N/A    frame=  958 fps=9.8 q=24.8 size=N/A time=00:00:15.98 bitrate=N/A    frame=  963 fps=9.8 q=24.8 size=N/A time=00:00:16.06 bitrate=N/A    frame=  968 fps=9.8 q=24.8 size=N/A time=00:00:16.14 bitrate=N/A    frame=  973 fps=9.8 q=24.8 size=N/A time=00:00:16.23 bitrate=N/A    frame=  978 fps=9.8 q=24.8 size=N/A time=00:00:16.31 bitrate=N/A    frame=  983 fps=9.8 q=24.8 size=N/A time=00:00:16.39 bitrate=N/A    frame=  988 fps=9.8 q=24.8 size=N/A time=00:00:16.48 bitrate=N/A    frame=  993 fps=9.8 q=24.8 size=N/A time=00:00:16.56 bitrate=N/A    frame=  998 fps=9.8 q=24.8 size=N/A time=00:00:16.64 bitrate=N/A    frame= 1003 fps=9.8 q=24.8 size=N/A time=00:00:16.73 bitrate=N/A    frame= 1008 fps=9.8 q=24.8 size=N/A time=00:00:16.81 bitrate=N/A    frame= 1013 fps=9.8 q=24.8 size=N/A time=00:00:16.90 bitrate=N/A    frame= 1018 fps=9.8 q=24.8 size=N/A time=00:00:16.98 bitrate=N/A    frame= 1023 fps=9.8 q=24.8 size=N/A time=00:00:17.06 bitrate=N/A    frame= 1028 fps=9.8 q=24.8 size=N/A time=00:00:17.15 bitrate=N/A    frame= 1033 fps=9.8 q=24.8 size=N/A time=00:00:17.23 bitrate=N/A    frame= 1038 fps=9.8 q=24.8 size=N/A time=00:00:17.31 bitrate=N/A    frame= 1043 fps=9.8 q=24.8 size=N/A time=00:00:17.40 bitrate=N/A    frame= 1048 fps=9.8 q=24.8 size=N/A time=00:00:17.48 bitrate=N/A    frame= 1053 fps=9.8 q=24.8 size=N/A time=00:00:17.56 bitrate=N/A    frame= 1058 fps=9.8 q=24.8 size=N/A time=00:00:17.65 bitrate=N/A    frame= 1063 fps=9.8 q=24.8 size=N/A time=00:00:17.73 bitrate=N/A    frame= 1068 fps=9.8 q=24.8 size=N/A time=00:00:17.81 bitrate=N/A    frame= 1073 fps=9.8 q=24.8 size=N/A time=00:00:17.90 bitrate=N/A    frame= 1078 fps=9.8 q=24.8 size=N/A time=00:00:17.98 bitrate=N/A    frame= 1083 fps=9.8 q=24.8 size=N/A time=00:00:18.06 bitrate=N/A    frame= 1088 fps=9.8 q=24.8 size=N/A time=00:00:18.15 bitrate=N/A    frame= 1093 fps=9.8 q=24.8 size=N/A time=00:00:18.23 bitrate=N/A    frame= 1098 fps=9.8 q=24.8 size=N/A time=00:00:18.31 bitrate=N/A    frame= 1103 fps=9.8 q=24.8 size=N/A time=00:00:18.40 bitrate=N/A    frame= 1108 fps=9.8 q=24.8 size=N/A time=00:00:18.48 bitrate=N/A    frame= 1113 fps=9.8 q=24.8 size=N/A time=00:00:18.56 bitrate=N/A    frame= 1118 fps=9.8 q=24.8 size=N/A time=00:00:18.65 bitrate=N/A    frame= 1123 fps=9.8 q=24.8 size=N/A time=00:00:18.73 bitrate=N/A    frame= 1128 fps=9.8 q=24.8 size=N/A time=00:00:18.81 bitrate=N/A    frame= 1133 fps=9.8 q=24.8 size=N/A time=00:00:18.90 bitrate=N/A    frame= 1138 fps=9.8 q=24.8 size=N/A time=00:00:18.98 bitrate=N/A    frame= 1143 fps=9.8 q=24.8 size=N/A time=00:00:19.06 bitrate=N/A    frame= 1148 fps=9.8 q=24.8 size=N/A time=00:00:19.15 bitrate=N/A    frame= 1153 fps=9.8 q=24.8 size=N/A time=00:00:19.23 bitrate=N/A    frame= 1158 fps=9.8 q=24.8 size=N/A time=00:00:19.31 bitrate=N/A    frame= 1163 fps=9.8 q=24.8 size=N/A time=00:00:19.40 bitrate=N/A    frame= 1168 fps=9.8 q=24.8 size=N/A time=00:00:19.48 bitrate=N/A    frame= 1173 fps=9.8 q=24.8 size=N/A time=00:00:19.56 bitrate=N/A    frame= 1178 fps=9.8 q=24.8 size=N/A time=00:00:19.65 bitrate=N/A    frame= 1183 fps=9.8 q=24.8 size=N/A time=00:00:19.73 bitrate=N/A    frame= 1188 fps=9.8 q=24.8 size=N/A time=00:00:19.81 bitrate=N/A    frame= 1193 fps=9.8 q=24.8 size=N/A time=00:00:19.90 bitrate=N/A    frame= 1198 fps=9.8 q=24.8 size=N/A time=00:00:19.98 bitrate=N/A    frame= 1203 fps=9.8 q=24.8 size=N/A time=00:00:20.07 bitrate=N/A    frame= 1208 fps=9.8 q=24.8 size=N/A time=00:00:20.15 bitrate=N/A    frame= 1213 fps=9.8 q=24.8 size=N/A time=00:00:20.23 bitrate=N/A    frame= 1218 fps=9.8 q=24.8 size=N/A time=00:00:20.32 bitrate=N/A    frame= 1223 fps=9.8 q=24.8 size=N/A time=00:00:20.40 bitrate=N/A    frame= 1228 fps=9.8 q=24.8 size=N/A time=00:00:20.48 bitrate=N/A    frame= 1233 fps=9.8 q=24.8 size=N/A time=00:00:20.57 bitrate=N/A    frame= 1238 fps=9.8 q=24.8 size=N/A time=00:00:20.65 bitrate=N/A    frame= 1243 fps=9.8 q=24.8 size=N/A time=00:00:20.73 bitrate=N/A    frame= 1248 fps=9.8 q=24.8 size=N/A time=00:00:20.82 bitrate=N/A    frame= 1253 fps=9.8 q=24.8 size=N/A time=00:00:20.90 bitrate=N/A    frame= 1258 fps=9.8 q=24.8 size=N/A time=00:00:20.98 bitrate=N/A    frame= 1263 fps=9.8 q=24.8 size=N/A time=00:00:21.07 bitrate=N/A    frame= 1268 fps=9.8 q=24.8 size=N/A time=00:00:21.15 bitrate=N/A    frame= 1273 fps=9.8 q=24.8 size=N/A time=00:00:21.23 bitrate=N/A    frame= 1278 fps=9.8 q=24.8 size=N/A time=00:00:21.32 bitrate=N/A    frame= 1283 fps=9.8 q=24.8 size=N/A time=00:00:21.40 bitrate=N/A    frame= 1288 fps=9.8 q=24.8 size=N/A time=00:00:21.48 bitrate=N/A    frame= 1293 fps=9.8 q=24.8 size=N/A time=00:00:21.57 bitrate=N/A    frame= 1298 fps=9.8 q=24.8 size=N/A time=00:00:21.65 bitrate=N/A    frame= 1303 fps=9.8 q=24.8 size=N/A time=00:00:21.73 bitrate=N/A    frame= 1308 fps=9.8 q=24.8 size=N/A time=00:00:21.82 bitrate=N/A    frame= 1313 fps=9.8 q=24.8 size=N/A time=00:00:21.90 bitrate=N/A    frame= 1318 fps=9.8 q=24.8 size=N/A time=00:00:21.98 bitrate=N/A    frame= 1323 fps=9.8 q=24.8 size=N/A time=00:00:22.07 bitrate=N/A    frame= 1328 fps=9.8 q=24.8 size=N/A time=00:00:22.15 bitrate=N/A    frame= 1333 fps=9.8 q=24.8 size=N/A time=00:00:22.23 bitrate=N/A    frame= 1338 fps=9.8 q=24.8 size=N/A time=00:00:22.32 bitrate=N/A    frame= 1343 fps=9.8 q=24.8 size=N/A time=00:00:22.40 bitrate=N/A    frame= 1348 fps=9.8 q=24.8 size=N/A time=00:00:22.48 bitrate=N/A    frame= 1353 fps=9.8 q=24.8 size=N/A time=00:00:22.57 bitrate=N/A    frame= 1358 fps=9.8 q=24.8 size=N/A time=00:00:22.65 bitrate=N/A    frame= 1363 fps=9.8 q=24.8 size=N/A time=00:00:22.73 bitrate=N/A    frame= 1368 fps=9.8 q=24.8 size=N/A time=00:00:22.82 bitrate=N/A    frame= 1373 fps=9.8 q=24.8 size=N/A time=00:00:22.90 bitrate=N/A    frame= 1378 fps=9.8 q=24.8 size=N/A time=00:00:22.98 bitrate=N/A    frame= 1383 fps=9.8 q=24.8 size=N/A time=00:00:23.07 bitrate=N/A    frame= 1388 fps=9.8 q=24.8 size=N/A time=00:00:23.15 bitrate=N/A    frame= 1393 fps=9.8 q=24.8 size=N/A time=00:00:23.23 bitrate=N/A    frame= 1398 fps=9.8 q=24.8 size=N/A time=00:00:23.32 bitrate=N/A    frame= 1403 fps=9.8 q=24.8 size=N/A time=00:00:23.40 bitrate=N/A    frame= 1408 fps=9.8 q=24.8 size=N/A time=00:00:23.49 bitrate=N/A    frame= 1413 fps=9.8 q=24.8 size=N/A time=00:00:23.57 bitrate=N/A    frame= 1418 fps=9.8 q=24.8 size=N/A time=00:00:23.65 bitrate=N/A    frame= 1423 fps=9.8 q=24.8 size=N/A time=00:00:23.74 bitrate=N/A    frame= 1428 fps=9.8 q=24.8 size=N/A time=00:00:23.82 bitrate=N/A    frame= 1433 fps=9.8 q=24.8 size=N/A time=00:00:23.90 bitrate=N/A    frame= 1438 fps=9.8 q=24.8 size=N/A time=00:00:23.99 bitrate=N/A    frame= 1443 fps=9.8 q=24.8 size=N/A time=00:00:24.07 bitrate=N/A    frame= 1448 fps=9.8 q=24.8 size=N/A time=00:00:24.15 bitrate=N/A    frame= 1453 fps=9.8 q=24.8 size=N/A time=00:00:24.24 bitrate=N/A    frame= 1458 fps=9.8 q=24.8 size=N/A time=00:00:24.32 bitrate=N/A    frame= 1463 fps=9.9 q=24.8 size=N/A time=00:00:24.40 bitrate=N/A    frame= 1468 fps=9.9 q=24.8 size=N/A time=00:00:24.49 bitrate=N/A    frame= 1473 fps=9.9 q=24.8 size=N/A time=00:00:24.57 bitrate=N/A    frame= 1478 fps=9.9 q=24.8 size=N/A time=00:00:24.65 bitrate=N/A    frame= 1482 fps=9.8 q=24.8 size=N/A time=00:00:24.72 bitrate=N/A    frame= 1482 fps=9.8 q=24.8 Lsize=N/A time=00:00:24.72 bitrate=N/A    
video:852063kB audio:0kB subtitle:0kB other streams:0kB global headers:0kB muxing overhead: unknown
+ turkic load DJI_0109_30m_kozepen_nyulragas_Vaskut_20180512_napos_kalaszos_T2 /home/horvathandras/vatic/vatic/videos/DJI_0109_30m_kozepen_nyulragas_Vaskut_20180512_napos_kalaszos_T2 $'Pozit\303\255vROI' $'Negat\303\255vROI' $'T\303\272r\303\241s' '~Friss' '~Régebbi' $'R\303\241g\303\241s' '~Friss' '~Régebbi' $'T\303\266r\303\251s' '~Friss' '~Régebbi' $'Tapos\303\241s' '~Friss' '~Régebbi' $'Eg\303\251szs\303\251gesN\303\266v\303\251ny' $'Egy\303\251b1' $'Egy\303\251b2' $'Egy\303\251b3' $'Egy\303\251b4' $'Egy\303\251b5' --offline --title '$filenameNoDot Video' --length 1000 --description 'vatic annotation'
+ turkic publish --offline
+ mkdir /home/horvathandras/vatic/vatic/public/videothumbnails/DJI_0109_30m_kozepen_nyulragas_Vaskut_20180512_napos_kalaszos_T2
+ cp /home/horvathandras/vatic/vatic/videos/DJI_0109_30m_kozepen_nyulragas_Vaskut_20180512_napos_kalaszos_T2/0/0/31.jpg /home/horvathandras/vatic/vatic/public/videothumbnails/DJI_0109_30m_kozepen_nyulragas_Vaskut_20180512_napos_kalaszos_T2/thumb.jpg
